<svg xmlns="http://www.w3.org/2000/svg" width="161.078" height="70.034" viewBox="0 0 161.078 70.034">
  <g id="imdb" transform="translate(0 -138.667)">
    <path id="Path_6" data-name="Path 6" d="M17.508,138.667H143.57a17.508,17.508,0,0,1,17.508,17.508v35.017A17.508,17.508,0,0,1,143.57,208.7H17.508A17.508,17.508,0,0,1,0,191.193V156.175A17.508,17.508,0,0,1,17.508,138.667Z" transform="translate(0 0)" fill="#ffc107"/>
    <g id="Group_20" data-name="Group 20" transform="translate(28.014 152.674)">
      <path id="Path_7" data-name="Path 7" d="M88.835,223.353a3.5,3.5,0,0,1-3.5-3.5V184.835a3.5,3.5,0,0,1,7,0v35.017A3.5,3.5,0,0,1,88.835,223.353Z" transform="translate(-85.333 -181.333)" fill="#455a64"/>
      <path id="Path_8" data-name="Path 8" d="M159.515,223.353a3.5,3.5,0,0,1-3.5-3.5V188.336h-.63l-6.443,32.216a3.5,3.5,0,0,1-6.863,0l-6.443-32.216H135v31.515a3.5,3.5,0,1,1-7,0V184.835a3.5,3.5,0,0,1,3.5-3.5h7a3.5,3.5,0,0,1,3.432,2.8l3.572,17.859,3.572-17.859a3.5,3.5,0,0,1,3.432-2.8h7a3.5,3.5,0,0,1,3.5,3.5v35.017A3.5,3.5,0,0,1,159.515,223.353Z" transform="translate(-113.993 -181.333)" fill="#455a64"/>
      <path id="Path_9" data-name="Path 9" d="M266.505,223.353h-7a3.5,3.5,0,0,1-3.5-3.5V184.835a3.5,3.5,0,0,1,3.5-3.5h7a10.505,10.505,0,0,1,10.505,10.505v21.01A10.505,10.505,0,0,1,266.505,223.353Zm-3.5-7h3.5a3.5,3.5,0,0,0,3.5-3.5v-21.01a3.5,3.5,0,0,0-3.5-3.5H263Z" transform="translate(-199.973 -181.333)" fill="#455a64"/>
      <path id="Path_10" data-name="Path 10" d="M344.835,223.353a3.5,3.5,0,0,1-3.5-3.5V184.835a3.5,3.5,0,0,1,7,0v35.017A3.5,3.5,0,0,1,344.835,223.353Z" transform="translate(-257.292 -181.333)" fill="#455a64"/>
      <path id="Path_11" data-name="Path 11" d="M351.838,237.683a10.505,10.505,0,0,1-10.505-10.505V213.171a10.505,10.505,0,0,1,21.01,0v14.007A10.505,10.505,0,0,1,351.838,237.683Zm0-28.014a3.5,3.5,0,0,0-3.5,3.5v14.007a3.5,3.5,0,1,0,7,0V213.171A3.5,3.5,0,0,0,351.838,209.67Z" transform="translate(-257.292 -195.663)" fill="#455a64"/>
    </g>
  </g>
</svg>
